<svg width="22" height="22" viewBox="0 0 22 22" fill="none" xmlns="http://www.w3.org/2000/svg">
<path fill-rule="evenodd" clip-rule="evenodd" d="M8.45492 3.46135C8.76241 2.42864 9.66424 1.375 11 1.375C12.3362 1.375 13.2371 2.42868 13.547 3.45944C13.5485 3.46137 13.5506 3.46379 13.5533 3.46658C13.5596 3.4732 13.5668 3.47929 13.5736 3.48402C13.5788 3.48761 13.5819 3.48916 13.5823 3.48934C14.3599 3.8095 15.2751 4.3209 15.9909 5.25721C16.7125 6.20105 17.182 7.51129 17.182 9.33926C17.182 11.1618 17.3742 12.1613 17.6574 12.8474C17.9057 13.449 18.2322 13.8444 18.6967 14.4071C18.7646 14.4893 18.8354 14.575 18.9093 14.6655C19.7655 15.7143 18.9572 17.1875 17.6383 17.1875H4.36609C3.04961 17.1875 2.22747 15.722 3.09078 14.6655C3.16476 14.575 3.23561 14.4892 3.30351 14.4069C3.76801 13.8443 4.09453 13.4488 4.34302 12.8472C4.62645 12.161 4.81919 11.1616 4.82027 9.33926M8.45492 3.46135C8.45373 3.46275 8.45224 3.46442 8.45043 3.4663C8.44458 3.47237 8.43766 3.47822 8.43076 3.48298C8.42435 3.48739 8.4205 3.48911 8.42051 3.48912C7.64258 3.80947 6.7266 4.32008 6.0107 5.25616C5.28915 6.19964 4.82034 7.51008 4.82027 9.33926M11 2.75C10.4707 2.75 9.96522 3.19139 9.76959 3.86443L9.76909 3.86614C9.64296 4.29594 9.2937 4.61672 8.94366 4.76071C8.94361 4.76073 8.94371 4.76069 8.94366 4.76071C8.28691 5.03118 7.61533 5.42142 7.1029 6.09146C6.59614 6.75408 6.19527 7.75564 6.19527 9.33926C6.19418 11.2399 5.99635 12.4462 5.61388 13.3721C5.28115 14.1777 4.81667 14.7375 4.35583 15.2929C4.28885 15.3736 4.22196 15.4542 4.15555 15.5355C4.12819 15.569 4.12049 15.5965 4.11862 15.6172C4.1165 15.6406 4.12091 15.6686 4.13563 15.6974C4.16118 15.7475 4.22479 15.8125 4.36609 15.8125H17.6383C17.7745 15.8125 17.8371 15.7496 17.8631 15.6982C17.891 15.6431 17.8876 15.5884 17.8445 15.5355C17.7782 15.4543 17.7113 15.3737 17.6444 15.293C17.1835 14.7376 16.7189 14.1777 16.3864 13.3719C16.0042 12.4459 15.807 11.2399 15.807 9.33926C15.807 7.75766 15.4058 6.75575 14.8986 6.09234C14.3857 5.42148 13.714 5.03054 13.0586 4.76073C12.7047 4.61515 12.3591 4.28987 12.2337 3.86724L12.2332 3.86549C12.035 3.19106 11.5294 2.75 11 2.75Z" fill="#49516C"/>
<path fill-rule="evenodd" clip-rule="evenodd" d="M8.45492 3.46135C8.76241 2.42864 9.66424 1.375 11 1.375C12.3362 1.375 13.2371 2.42868 13.547 3.45944C13.5485 3.46137 13.5506 3.46379 13.5533 3.46658C13.5596 3.4732 13.5668 3.47929 13.5736 3.48402C13.5788 3.48761 13.5819 3.48916 13.5823 3.48934C14.3599 3.8095 15.2751 4.3209 15.9909 5.25721C16.7125 6.20105 17.182 7.51129 17.182 9.33926C17.182 11.1618 17.3742 12.1613 17.6574 12.8474C17.9057 13.449 18.2322 13.8444 18.6967 14.4071C18.7646 14.4893 18.8354 14.575 18.9093 14.6655C19.7655 15.7143 18.9572 17.1875 17.6383 17.1875H4.36609C3.04961 17.1875 2.22747 15.722 3.09078 14.6655C3.16476 14.575 3.23561 14.4892 3.30351 14.4069C3.76801 13.8443 4.09453 13.4488 4.34302 12.8472C4.62645 12.161 4.81919 11.1616 4.82027 9.33926M8.45492 3.46135C8.45373 3.46275 8.45224 3.46442 8.45043 3.4663C8.44458 3.47237 8.43766 3.47822 8.43076 3.48298C8.42435 3.48739 8.4205 3.48911 8.42051 3.48912C7.64258 3.80947 6.7266 4.32008 6.0107 5.25616C5.28915 6.19964 4.82034 7.51008 4.82027 9.33926M11 2.75C10.4707 2.75 9.96522 3.19139 9.76959 3.86443L9.76909 3.86614C9.64296 4.29594 9.2937 4.61672 8.94366 4.76071C8.94361 4.76073 8.94371 4.76069 8.94366 4.76071C8.28691 5.03118 7.61533 5.42142 7.1029 6.09146C6.59614 6.75408 6.19527 7.75564 6.19527 9.33926C6.19418 11.2399 5.99635 12.4462 5.61388 13.3721C5.28115 14.1777 4.81667 14.7375 4.35583 15.2929C4.28885 15.3736 4.22196 15.4542 4.15555 15.5355C4.12819 15.569 4.12049 15.5965 4.11862 15.6172C4.1165 15.6406 4.12091 15.6686 4.13563 15.6974C4.16118 15.7475 4.22479 15.8125 4.36609 15.8125H17.6383C17.7745 15.8125 17.8371 15.7496 17.8631 15.6982C17.891 15.6431 17.8876 15.5884 17.8445 15.5355C17.7782 15.4543 17.7113 15.3737 17.6444 15.293C17.1835 14.7376 16.7189 14.1777 16.3864 13.3719C16.0042 12.4459 15.807 11.2399 15.807 9.33926C15.807 7.75766 15.4058 6.75575 14.8986 6.09234C14.3857 5.42148 13.714 5.03054 13.0586 4.76073C12.7047 4.61515 12.3591 4.28987 12.2337 3.86724L12.2332 3.86549C12.035 3.19106 11.5294 2.75 11 2.75Z" fill="black" fill-opacity="0.2"/>
<path fill-rule="evenodd" clip-rule="evenodd" d="M8.24999 15.8125C8.62969 15.8125 8.93749 16.1203 8.93749 16.5V17.1875C8.93749 17.7345 9.15479 18.2591 9.54158 18.6459C9.92838 19.0327 10.453 19.25 11 19.25C11.547 19.25 12.0716 19.0327 12.4584 18.6459C12.8452 18.2591 13.0625 17.7345 13.0625 17.1875V16.5C13.0625 16.1203 13.3703 15.8125 13.75 15.8125C14.1297 15.8125 14.4375 16.1203 14.4375 16.5V17.1875C14.4375 18.0992 14.0753 18.9735 13.4307 19.6182C12.786 20.2628 11.9117 20.625 11 20.625C10.0883 20.625 9.21397 20.2628 8.56931 19.6182C7.92465 18.9735 7.56249 18.0992 7.56249 17.1875V16.5C7.56249 16.1203 7.87029 15.8125 8.24999 15.8125Z" fill="#49516C"/>
<path fill-rule="evenodd" clip-rule="evenodd" d="M8.24999 15.8125C8.62969 15.8125 8.93749 16.1203 8.93749 16.5V17.1875C8.93749 17.7345 9.15479 18.2591 9.54158 18.6459C9.92838 19.0327 10.453 19.25 11 19.25C11.547 19.25 12.0716 19.0327 12.4584 18.6459C12.8452 18.2591 13.0625 17.7345 13.0625 17.1875V16.5C13.0625 16.1203 13.3703 15.8125 13.75 15.8125C14.1297 15.8125 14.4375 16.1203 14.4375 16.5V17.1875C14.4375 18.0992 14.0753 18.9735 13.4307 19.6182C12.786 20.2628 11.9117 20.625 11 20.625C10.0883 20.625 9.21397 20.2628 8.56931 19.6182C7.92465 18.9735 7.56249 18.0992 7.56249 17.1875V16.5C7.56249 16.1203 7.87029 15.8125 8.24999 15.8125Z" fill="black" fill-opacity="0.2"/>
<circle cx="16" cy="7" r="3" fill="#D38681"/>
</svg>
