<svg width="20" height="20" viewBox="0 0 20 20" fill="none" xmlns="http://www.w3.org/2000/svg">
<path fill-rule="evenodd" clip-rule="evenodd" d="M0 2.29167C0 1.02583 1.02583 0 2.29167 0H9.58333V9.58333H0V2.29167ZM5.20833 5.625H6.04167C6.38667 5.625 6.66667 5.345 6.66667 5C6.66667 4.655 6.38667 4.375 6.04167 4.375H5.20833V3.54167C5.20833 3.19667 4.92833 2.91667 4.58333 2.91667C4.23833 2.91667 3.95833 3.19667 3.95833 3.54167V4.375H3.125C2.78 4.375 2.5 4.655 2.5 5C2.5 5.345 2.78 5.625 3.125 5.625H3.95833V6.45833C3.95833 6.80333 4.23833 7.08333 4.58333 7.08333C4.92833 7.08333 5.20833 6.80333 5.20833 6.45833V5.625Z" fill="white"/>
<path fill-rule="evenodd" clip-rule="evenodd" d="M0 17.7083V10.4167H9.58333V20H2.29167C1.02583 20 0 18.9742 0 17.7083ZM6.275 16.6925C6.51917 16.4483 6.51917 16.0525 6.275 15.8083L5.67667 15.2075L6.27667 14.6075C6.52083 14.3633 6.52083 13.9675 6.27667 13.7233C6.0325 13.4792 5.63667 13.4792 5.3925 13.7233L4.7925 14.3233L4.1925 13.7233C3.94833 13.4792 3.5525 13.4792 3.30833 13.7233C3.06417 13.9675 3.06417 14.3633 3.30833 14.6075L3.90833 15.2075L3.30833 15.8075C3.06417 16.0517 3.06417 16.4475 3.30833 16.6917C3.43 16.8142 3.59 16.875 3.75 16.875C3.91 16.875 4.07 16.8133 4.19167 16.6917L4.79167 16.0917L5.39167 16.6917C5.51333 16.8142 5.67333 16.875 5.83333 16.875C5.99333 16.875 6.15333 16.8142 6.275 16.6925Z" fill="white"/>
<path fill-rule="evenodd" clip-rule="evenodd" d="M10.4167 0H17.7084C18.9742 0 20 1.02583 20 2.29167V9.58333H10.4167V0ZM13.5417 5.41667H17.2917C17.6367 5.41667 17.9167 5.13667 17.9167 4.79167C17.9167 4.44667 17.6367 4.16667 17.2917 4.16667H13.5417C13.1967 4.16667 12.9167 4.44667 12.9167 4.79167C12.9167 5.13667 13.1967 5.41667 13.5417 5.41667Z" fill="white"/>
<path fill-rule="evenodd" clip-rule="evenodd" d="M10.4167 10.4167V20H17.7084C18.9742 20 20 18.9742 20 17.7083V10.4167H10.4167ZM17.0834 17.0833H13.3334C12.9884 17.0833 12.7084 16.8033 12.7084 16.4583C12.7084 16.1133 12.9884 15.8333 13.3334 15.8333H17.0834C17.4284 15.8333 17.7084 16.1133 17.7084 16.4583C17.7084 16.8033 17.4284 17.0833 17.0834 17.0833ZM13.3334 14.5833H17.0834C17.4284 14.5833 17.7084 14.3033 17.7084 13.9583C17.7084 13.6133 17.4284 13.3333 17.0834 13.3333H13.3334C12.9884 13.3333 12.7084 13.6133 12.7084 13.9583C12.7084 14.3033 12.9884 14.5833 13.3334 14.5833Z" fill="white"/>
</svg>
