<svg xmlns="http://www.w3.org/2000/svg" width="20" height="20" viewBox="0 0 20 20">
    <g fill="none" fill-rule="evenodd">
        <g fill-rule="nonzero">
            <g>
                <g>
                    <path fill="#49516C" d="M2.292 0C1.026 0 0 1.026 0 2.292v7.291h9.583V0H2.292zm3.75 5.625h-.834v.833c0 .345-.28.625-.625.625s-.625-.28-.625-.625v-.833h-.833c-.345 0-.625-.28-.625-.625s.28-.625.625-.625h.833v-.833c0-.345.28-.625.625-.625s.625.28.625.625v.833h.834c.345 0 .625.28.625.625s-.28.625-.625.625zM0 10.417v7.291C0 18.974 1.026 20 2.292 20h7.291v-9.583H0zm6.275 5.391c.244.244.244.64 0 .884-.122.122-.282.183-.442.183-.16 0-.32-.06-.441-.183l-.6-.6-.6.6c-.122.121-.282.183-.442.183-.16 0-.32-.06-.442-.183-.244-.244-.244-.64 0-.885l.6-.6-.6-.6c-.244-.244-.244-.64 0-.884.245-.244.64-.244.885 0l.6.6.6-.6c.244-.244.64-.244.884 0s.244.64 0 .884l-.6.6.598.601zM17.708 0h-7.291v9.583H20V2.292C20 1.026 18.974 0 17.708 0zm-.416 5.417h-3.75c-.345 0-.625-.28-.625-.625s.28-.625.625-.625h3.75c.345 0 .625.28.625.625s-.28.625-.625.625z" transform="translate(-1198 -131) translate(0 60) translate(1198 71)"/>
                    <path fill="#A0332D" d="M10.417 10.417V20h7.291C18.974 20 20 18.974 20 17.708v-7.291h-9.583zm6.666 6.666h-3.75c-.345 0-.625-.28-.625-.625s.28-.625.625-.625h3.75c.345 0 .625.28.625.625s-.28.625-.625.625zm0-2.5h-3.75c-.345 0-.625-.28-.625-.625s.28-.625.625-.625h3.75c.345 0 .625.28.625.625s-.28.625-.625.625z" transform="translate(-1198 -131) translate(0 60) translate(1198 71)"/>
                </g>
            </g>
        </g>
    </g>
</svg>
