<svg width="20" height="20" viewBox="0 0 20 20" fill="none" xmlns="http://www.w3.org/2000/svg">
<g clip-path="url(#clip0_2738_207)">
<path d="M1.45833 0.833252H11.875C12.68 0.833252 13.3333 1.48659 13.3333 2.29159V10.2083C13.3333 10.595 13.1797 10.966 12.9062 11.2394C12.6327 11.5129 12.2618 11.6666 11.875 11.6666H6.7175L4.5725 13.8108C4.40254 13.9801 4.18627 14.0953 3.95093 14.1419C3.7156 14.1884 3.47174 14.1643 3.25009 14.0725C3.02845 13.9807 2.83894 13.8254 2.70545 13.626C2.57197 13.4267 2.50048 13.1923 2.5 12.9524V11.6666H1.45833C1.07156 11.6666 0.700626 11.5129 0.427136 11.2394C0.153645 10.966 0 10.595 0 10.2083V2.29159C0 1.48659 0.653333 0.833252 1.45833 0.833252ZM1.25 2.29159V10.2083C1.25 10.3233 1.34333 10.4166 1.45833 10.4166H3.125C3.29076 10.4166 3.44973 10.4824 3.56694 10.5996C3.68415 10.7169 3.75 10.8758 3.75 11.0416V12.8666L6.01667 10.5999C6.07462 10.5418 6.14346 10.4957 6.21925 10.4643C6.29503 10.4328 6.37628 10.4166 6.45833 10.4166H11.875C11.9303 10.4166 11.9832 10.3946 12.0223 10.3556C12.0614 10.3165 12.0833 10.2635 12.0833 10.2083V2.29159C12.0833 2.23633 12.0614 2.18334 12.0223 2.14427C11.9832 2.1052 11.9303 2.08325 11.875 2.08325H1.45833C1.40308 2.08325 1.35009 2.1052 1.31102 2.14427C1.27195 2.18334 1.25 2.23633 1.25 2.29159Z" fill="#49516C"/>
<path d="M1.45833 0.833252H11.875C12.68 0.833252 13.3333 1.48659 13.3333 2.29159V10.2083C13.3333 10.595 13.1797 10.966 12.9062 11.2394C12.6327 11.5129 12.2618 11.6666 11.875 11.6666H6.7175L4.5725 13.8108C4.40254 13.9801 4.18627 14.0953 3.95093 14.1419C3.7156 14.1884 3.47174 14.1643 3.25009 14.0725C3.02845 13.9807 2.83894 13.8254 2.70545 13.626C2.57197 13.4267 2.50048 13.1923 2.5 12.9524V11.6666H1.45833C1.07156 11.6666 0.700626 11.5129 0.427136 11.2394C0.153645 10.966 0 10.595 0 10.2083V2.29159C0 1.48659 0.653333 0.833252 1.45833 0.833252ZM1.25 2.29159V10.2083C1.25 10.3233 1.34333 10.4166 1.45833 10.4166H3.125C3.29076 10.4166 3.44973 10.4824 3.56694 10.5996C3.68415 10.7169 3.75 10.8758 3.75 11.0416V12.8666L6.01667 10.5999C6.07462 10.5418 6.14346 10.4957 6.21925 10.4643C6.29503 10.4328 6.37628 10.4166 6.45833 10.4166H11.875C11.9303 10.4166 11.9832 10.3946 12.0223 10.3556C12.0614 10.3165 12.0833 10.2635 12.0833 10.2083V2.29159C12.0833 2.23633 12.0614 2.18334 12.0223 2.14427C11.9832 2.1052 11.9303 2.08325 11.875 2.08325H1.45833C1.40308 2.08325 1.35009 2.1052 1.31102 2.14427C1.27195 2.18334 1.25 2.23633 1.25 2.29159Z" fill="black" fill-opacity="0.2"/>
<path d="M18.75 7.29159C18.75 7.23633 18.7281 7.18334 18.689 7.14427C18.6499 7.1052 18.5969 7.08325 18.5417 7.08325H15.625C15.4592 7.08325 15.3003 7.0174 15.1831 6.90019C15.0658 6.78298 15 6.62401 15 6.45825C15 6.29249 15.0658 6.13352 15.1831 6.01631C15.3003 5.8991 15.4592 5.83325 15.625 5.83325H18.5417C19.3467 5.83325 20 6.48659 20 7.29159V15.2083C20 15.595 19.8464 15.966 19.5729 16.2394C19.2994 16.5129 18.9284 16.6666 18.5417 16.6666H17.5V17.9524C17.4999 18.1925 17.4287 18.4272 17.2952 18.6268C17.1618 18.8263 16.9722 18.9819 16.7504 19.0738C16.5286 19.1656 16.2845 19.1897 16.0491 19.1429C15.8136 19.096 15.5973 18.9805 15.4275 18.8108L13.2825 16.6666H8.95833C8.57156 16.6666 8.20063 16.5129 7.92714 16.2394C7.65364 15.966 7.5 15.595 7.5 15.2083V13.9874C7.5 13.8217 7.56585 13.6627 7.68306 13.5455C7.80027 13.4283 7.95924 13.3624 8.125 13.3624C8.29076 13.3624 8.44973 13.4283 8.56694 13.5455C8.68415 13.6627 8.75 13.8217 8.75 13.9874V15.2083C8.75 15.3233 8.84333 15.4166 8.95833 15.4166H13.5417C13.7074 15.4167 13.8662 15.4827 13.9833 15.5999L16.25 17.8666V16.0416C16.25 15.8758 16.3158 15.7169 16.4331 15.5996C16.5503 15.4824 16.7092 15.4166 16.875 15.4166H18.5417C18.5969 15.4166 18.6499 15.3946 18.689 15.3556C18.7281 15.3165 18.75 15.2635 18.75 15.2083V7.29159Z" fill="#49516C"/>
<path d="M18.75 7.29159C18.75 7.23633 18.7281 7.18334 18.689 7.14427C18.6499 7.1052 18.5969 7.08325 18.5417 7.08325H15.625C15.4592 7.08325 15.3003 7.0174 15.1831 6.90019C15.0658 6.78298 15 6.62401 15 6.45825C15 6.29249 15.0658 6.13352 15.1831 6.01631C15.3003 5.8991 15.4592 5.83325 15.625 5.83325H18.5417C19.3467 5.83325 20 6.48659 20 7.29159V15.2083C20 15.595 19.8464 15.966 19.5729 16.2394C19.2994 16.5129 18.9284 16.6666 18.5417 16.6666H17.5V17.9524C17.4999 18.1925 17.4287 18.4272 17.2952 18.6268C17.1618 18.8263 16.9722 18.9819 16.7504 19.0738C16.5286 19.1656 16.2845 19.1897 16.0491 19.1429C15.8136 19.096 15.5973 18.9805 15.4275 18.8108L13.2825 16.6666H8.95833C8.57156 16.6666 8.20063 16.5129 7.92714 16.2394C7.65364 15.966 7.5 15.595 7.5 15.2083V13.9874C7.5 13.8217 7.56585 13.6627 7.68306 13.5455C7.80027 13.4283 7.95924 13.3624 8.125 13.3624C8.29076 13.3624 8.44973 13.4283 8.56694 13.5455C8.68415 13.6627 8.75 13.8217 8.75 13.9874V15.2083C8.75 15.3233 8.84333 15.4166 8.95833 15.4166H13.5417C13.7074 15.4167 13.8662 15.4827 13.9833 15.5999L16.25 17.8666V16.0416C16.25 15.8758 16.3158 15.7169 16.4331 15.5996C16.5503 15.4824 16.7092 15.4166 16.875 15.4166H18.5417C18.5969 15.4166 18.6499 15.3946 18.689 15.3556C18.7281 15.3165 18.75 15.2635 18.75 15.2083V7.29159Z" fill="black" fill-opacity="0.2"/>
</g>
<defs>
<clipPath id="clip0_2738_207">
<rect width="20" height="20" fill="white"/>
</clipPath>
</defs>
</svg>
