<svg width="22" height="28" viewBox="0 0 22 28" fill="none" xmlns="http://www.w3.org/2000/svg">
<g clip-path="url(#clip0_1_143)">
<path d="M14.3525 25.1357L19.2663 19.9906H14.3525V25.1357ZM4.33046 14.1139H17.6673V15.374H4.33046V14.1139ZM4.33046 17.2106H10.5734V18.4707H4.33046V17.2106ZM4.33046 20.3073H8.72954V21.5674H4.33046V20.3073ZM11.9825 9.90755H10.1433L9.82302 11.2041H7.42331L9.63544 4.4069H12.5293L14.7528 11.2041H12.2936L11.9825 9.90755ZM11.6302 8.41504L11.0835 6.15007H11.0515L10.7838 7.30306L10.5047 8.41504H11.6302ZM22 19.3343C22 19.7057 21.7484 20.027 21.4052 20.1204L14.1672 27.7015C14.0162 27.8883 13.7875 28.0023 13.5358 28.0023H1.47094C1.06145 28.0023 0.695435 27.8382 0.430072 27.5739C0.164708 27.3073 0 26.9427 0 26.5348V1.46517C0 1.05729 0.164708 0.692708 0.430072 0.428385C0.695435 0.164063 1.06832 0 1.47094 0H20.5291C20.9317 0 21.3046 0.164063 21.5699 0.428385C21.8353 0.692708 22 1.05729 22 1.46517V19.3343ZM20.3575 18.3545V1.63607H1.64251V26.3708H12.71V19.1771C12.71 18.7259 13.076 18.3545 13.5358 18.3545H20.3575Z" fill="white"/>
</g>
<defs>
<clipPath id="clip0_1_143">
<rect width="22" height="28" fill="white"/>
</clipPath>
</defs>
</svg>
