<svg width="23" height="27" viewBox="0 0 23 27" fill="none" xmlns="http://www.w3.org/2000/svg">
<g clip-path="url(#clip0_1_141)">
<path d="M8.04957 7.56958C7.87348 7.55572 7.70915 7.47703 7.58931 7.34917C7.46947 7.22131 7.40293 7.05367 7.40293 6.87964C7.40293 6.70561 7.46947 6.53797 7.58931 6.41011C7.70915 6.28225 7.87348 6.20355 8.04957 6.1897H17.0337C17.2098 6.20355 17.3741 6.28225 17.4939 6.41011C17.6138 6.53797 17.6803 6.70561 17.6803 6.87964C17.6803 7.05367 17.6138 7.22131 17.4939 7.34917C17.3741 7.47703 17.2098 7.55572 17.0337 7.56958H8.04957ZM3.66458 19.7754C3.88842 19.7755 4.10841 19.8328 4.30295 19.9419C4.49749 20.051 4.65992 20.208 4.77429 20.3976C4.88866 20.5872 4.95105 20.8027 4.95534 21.0232C4.95963 21.2437 4.90567 21.4615 4.79876 21.6552C4.69185 21.849 4.53565 22.012 4.3455 22.1284C4.15534 22.2447 3.93775 22.3104 3.71407 22.3189C3.4904 22.3274 3.26831 22.2785 3.0696 22.177C2.87089 22.0754 2.70238 21.9248 2.5806 21.7397H1.96724V24.6753C1.96782 24.7858 2.01266 24.8917 2.09201 24.9699C2.17135 25.048 2.2788 25.0922 2.39101 25.0928H20.3191C20.4312 25.0921 20.5386 25.0479 20.6179 24.9697C20.6576 24.9313 20.6891 24.8855 20.7106 24.8349C20.732 24.7844 20.743 24.7301 20.7428 24.6753V1.56445C20.743 1.4542 20.6989 1.34836 20.6202 1.27002C20.5401 1.1917 20.4319 1.14752 20.3191 1.14697H2.39101C2.33528 1.14668 2.28004 1.15728 2.22849 1.17816C2.17694 1.19904 2.13011 1.22978 2.0907 1.2686C2.05129 1.30743 2.02008 1.35356 1.99889 1.40435C1.9777 1.45513 1.96694 1.50955 1.96724 1.56445V4.5H2.5806C2.73204 4.26882 2.95537 4.09213 3.21719 3.99634C3.47902 3.90056 3.76528 3.89082 4.03319 3.96859C4.30109 4.04636 4.53626 4.20745 4.70352 4.4278C4.87079 4.64814 4.96118 4.9159 4.96118 5.19104C4.96118 5.46618 4.87079 5.73394 4.70352 5.95428C4.53626 6.17462 4.30109 6.33572 4.03319 6.41349C3.76528 6.49126 3.47902 6.48152 3.21719 6.38574C2.95537 6.28995 2.73204 6.11326 2.5806 5.88208H1.96724V9.78442H2.5806C2.73204 9.55324 2.95537 9.37655 3.21719 9.28077C3.47902 9.18498 3.76528 9.17525 4.03319 9.25302C4.30109 9.33078 4.53626 9.49188 4.70352 9.71222C4.87079 9.93256 4.96118 10.2003 4.96118 10.4755C4.96118 10.7506 4.87079 11.0184 4.70352 11.2387C4.53626 11.459 4.30109 11.6201 4.03319 11.6979C3.76528 11.7757 3.47902 11.7659 3.21719 11.6702C2.95537 11.5744 2.73204 11.3977 2.5806 11.1665H1.96724V15.0688H2.5806C2.73198 14.8383 2.95499 14.6622 3.21633 14.5669C3.47767 14.4715 3.76331 14.462 4.03059 14.5397C4.29787 14.6175 4.53245 14.7783 4.6993 14.9982C4.86614 15.2182 4.9563 15.4853 4.9563 15.7599C4.9563 16.0344 4.86614 16.3016 4.6993 16.5215C4.53245 16.7414 4.29787 16.9023 4.03059 16.98C3.76331 17.0578 3.47767 17.0483 3.21633 16.9529C2.95499 16.8575 2.73198 16.6814 2.5806 16.4509H1.96724V20.3533H2.5806C2.69808 20.1756 2.85878 20.0296 3.04809 19.9287C3.23741 19.8278 3.44932 19.7751 3.66458 19.7754ZM0.700363 21.7354C0.521162 21.7254 0.352625 21.6482 0.229336 21.5197C0.106046 21.3912 0.0373535 21.2211 0.0373535 21.0443C0.0373535 20.8675 0.106046 20.6974 0.229336 20.5689C0.352625 20.4404 0.521162 20.3632 0.700363 20.3533H0.802962V16.4509H0.700363C0.521162 16.441 0.352625 16.3638 0.229336 16.2353C0.106046 16.1068 0.0373535 15.9367 0.0373535 15.7599C0.0373535 15.5831 0.106046 15.413 0.229336 15.2845C0.352625 15.156 0.521162 15.0788 0.700363 15.0688H0.802962V11.1665H0.700363C0.521162 11.1565 0.352625 11.0794 0.229336 10.9509C0.106046 10.8224 0.0373535 10.6523 0.0373535 10.4755C0.0373535 10.2986 0.106046 10.1285 0.229336 10C0.352625 9.87153 0.521162 9.79438 0.700363 9.78442H0.802962V5.88208H0.700363C0.521162 5.87212 0.352625 5.79498 0.229336 5.66647C0.106046 5.53797 0.0373535 5.36786 0.0373535 5.19104C0.0373535 5.01422 0.106046 4.84411 0.229336 4.71561C0.352625 4.5871 0.521162 4.50996 0.700363 4.5H0.802962V1.56445C0.804544 1.15188 0.97219 0.756774 1.26912 0.46582C1.41521 0.320784 1.58892 0.205565 1.78028 0.126763C1.97165 0.0479615 2.17691 0.00712472 2.38432 0.0065918H20.3191C20.5265 0.00712472 20.7317 0.0479615 20.9231 0.126763C21.1145 0.205565 21.2882 0.320784 21.4343 0.46582C21.6406 0.666212 21.7872 0.918534 21.858 1.19531H21.9919C22.2575 1.19818 22.5115 1.30357 22.6992 1.48886C22.8868 1.67415 22.9932 1.92455 22.9956 2.18628V26.009C22.9944 26.2711 22.8883 26.5222 22.7004 26.7077C22.5125 26.8932 22.2579 26.9983 21.9919 27H3.73818C3.51137 27 3.29123 26.9244 3.11348 26.7856C2.93574 26.6468 2.81083 26.4529 2.75903 26.2354H2.39101C1.9702 26.2342 1.56695 26.069 1.26939 25.7759C0.971829 25.4827 0.804139 25.0855 0.802962 24.6709V21.7354H0.700363ZM8.06072 20.0457C7.88152 20.0357 7.71298 19.9586 7.58969 19.83C7.4664 19.7015 7.39771 19.5314 7.39771 19.3546C7.39771 19.1778 7.4664 19.0077 7.58969 18.8792C7.71298 18.7507 7.88152 18.6735 8.06072 18.6636H17.0337C17.2129 18.6735 17.3814 18.7507 17.5047 18.8792C17.628 19.0077 17.6967 19.1778 17.6967 19.3546C17.6967 19.5314 17.628 19.7015 17.5047 19.83C17.3814 19.9586 17.2129 20.0357 17.0337 20.0457H8.06072ZM8.06072 15.8884C7.88152 15.8785 7.71298 15.8013 7.58969 15.6728C7.4664 15.5443 7.39771 15.3742 7.39771 15.1974C7.39771 15.0206 7.4664 14.8505 7.58969 14.722C7.71298 14.5935 7.88152 14.5163 8.06072 14.5063H17.0337C17.2129 14.5163 17.3814 14.5935 17.5047 14.722C17.628 14.8505 17.6967 15.0206 17.6967 15.1974C17.6967 15.3742 17.628 15.5443 17.5047 15.6728C17.3814 15.8013 17.2129 15.8785 17.0337 15.8884H8.06072ZM8.06072 11.729C7.88152 11.719 7.71298 11.6419 7.58969 11.5134C7.4664 11.3849 7.39771 11.2148 7.39771 11.038C7.39771 10.8611 7.4664 10.691 7.58969 10.5625C7.71298 10.434 7.88152 10.3569 8.06072 10.3469H17.0337C17.2129 10.3569 17.3814 10.434 17.5047 10.5625C17.628 10.691 17.6967 10.8611 17.6967 11.038C17.6967 11.2148 17.628 11.3849 17.5047 11.5134C17.3814 11.6419 17.2129 11.719 17.0337 11.729H8.06072Z" fill="#49516C"/>
</g>
<defs>
<clipPath id="clip0_1_141">
<rect width="23" height="27" fill="white"/>
</clipPath>
</defs>
</svg>
